<svg width="16" height="16" viewBox="0 0 16 16" fill="none" xmlns="http://www.w3.org/2000/svg">
<path fill-rule="evenodd" clip-rule="evenodd" d="M8.66676 7.1001C9.16382 7.1001 9.56676 7.50304 9.56676 8.0001V8.0076C9.56676 8.50465 9.16382 8.9076 8.66676 8.9076C8.16971 8.9076 7.76676 8.50465 7.76676 8.0076V8.0001C7.76676 7.50304 8.16971 7.1001 8.66676 7.1001Z" fill="#8992AD"/>
<path fill-rule="evenodd" clip-rule="evenodd" d="M1.1001 14.0001C1.1001 13.503 1.50304 13.1001 2.0001 13.1001H14.0001C14.4972 13.1001 14.9001 13.503 14.9001 14.0001C14.9001 14.4972 14.4972 14.9001 14.0001 14.9001H2.0001C1.50304 14.9001 1.1001 14.4972 1.1001 14.0001Z" fill="#8992AD"/>
<path fill-rule="evenodd" clip-rule="evenodd" d="M4.66676 2.9001C4.55184 2.9001 4.44162 2.94575 4.36035 3.02702C4.27909 3.10828 4.23343 3.2185 4.23343 3.33343V14.0001C4.23343 14.4972 3.83049 14.9001 3.33343 14.9001C2.83637 14.9001 2.43343 14.4972 2.43343 14.0001V3.33343C2.43343 2.74111 2.66873 2.17306 3.08756 1.75423C3.50639 1.33539 4.07445 1.1001 4.66676 1.1001H9.66676C10.1638 1.1001 10.5668 1.50304 10.5668 2.0001C10.5668 2.49715 10.1638 2.9001 9.66676 2.9001H4.66676ZM11.3334 8.1001C11.8305 8.1001 12.2334 8.50304 12.2334 9.0001V14.0001C12.2334 14.4972 11.8305 14.9001 11.3334 14.9001C10.8364 14.9001 10.4334 14.4972 10.4334 14.0001V9.0001C10.4334 8.50304 10.8364 8.1001 11.3334 8.1001Z" fill="#8992AD"/>
<path fill-rule="evenodd" clip-rule="evenodd" d="M11.3637 2.03037C11.7152 1.6789 12.285 1.6789 12.6365 2.03037L14.6365 4.03037C14.988 4.38184 14.988 4.95169 14.6365 5.30316L12.6365 7.30316C12.285 7.65463 11.7152 7.65463 11.3637 7.30316C11.0122 6.95169 11.0122 6.38184 11.3637 6.03037L11.8273 5.56676H9.33343C8.83637 5.56676 8.43343 5.16382 8.43343 4.66676C8.43343 4.16971 8.83637 3.76676 9.33343 3.76676H11.8273L11.3637 3.30316C11.0122 2.95169 11.0122 2.38184 11.3637 2.03037Z" fill="#8992AD"/>
</svg>
