<svg width="16" height="16" viewBox="0 0 16 16" fill="none" xmlns="http://www.w3.org/2000/svg">
<g clip-path="url(#clip0_704_4148)">
<path fill-rule="evenodd" clip-rule="evenodd" d="M7.36964 1.98049V3.38749C7.36964 3.38794 7.36964 3.38839 7.36964 3.38883C7.36964 3.38928 7.36964 3.38973 7.36964 3.39018V4.0194H8.63075V1.98049H7.36964ZM5.51964 2.46384V1.83327C5.51964 1.38167 5.69904 0.94856 6.01837 0.629227C6.3377 0.309894 6.77081 0.130493 7.22242 0.130493H8.77797C9.22958 0.130493 9.66269 0.309893 9.98202 0.629227C10.3014 0.948561 10.4808 1.38167 10.4808 1.83327V2.46384H14.2224C14.674 2.46384 15.1071 2.64324 15.4265 2.96257C15.7458 3.28191 15.9252 3.71501 15.9252 4.16662V13.5C15.9252 13.9516 15.7458 14.3847 15.4265 14.704C15.1071 15.0234 14.674 15.2028 14.2224 15.2028H1.77797C1.32637 15.2028 0.893259 15.0234 0.573926 14.704C0.254593 14.3847 0.0751953 13.9516 0.0751953 13.5V4.16662C0.0751953 3.71501 0.254594 3.2819 0.573926 2.96257C0.893259 2.64324 1.32637 2.46384 1.77797 2.46384H5.51964ZM10.4744 4.31384C10.4399 4.71149 10.2665 5.08621 9.98202 5.37066C9.66269 5.69 9.22958 5.8694 8.77797 5.8694H7.22242C6.77081 5.8694 6.3377 5.68999 6.01837 5.37066C5.73392 5.08621 5.56051 4.71149 5.52601 4.31384H1.9252V13.3528H14.0752V4.31384H10.4744ZM3.18631 8.05552C3.18631 7.54466 3.60044 7.13052 4.11131 7.13052H6.44464C6.9555 7.13052 7.36964 7.54466 7.36964 8.05552V11.1666C7.36964 11.6775 6.9555 12.0916 6.44464 12.0916H4.11131C3.60044 12.0916 3.18631 11.6775 3.18631 11.1666V8.05552ZM5.03631 8.98052V10.2416H5.51964V8.98052H5.03631ZM8.63075 8.05552C8.63075 7.54466 9.04489 7.13052 9.55575 7.13052H12.6669C13.1777 7.13052 13.5919 7.54466 13.5919 8.05552C13.5919 8.56638 13.1777 8.98052 12.6669 8.98052H9.55575C9.04489 8.98052 8.63075 8.56638 8.63075 8.05552ZM8.63075 11.1666C8.63075 10.6558 9.04489 10.2416 9.55575 10.2416H11.1113C11.6222 10.2416 12.0363 10.6558 12.0363 11.1666C12.0363 11.6775 11.6222 12.0916 11.1113 12.0916H9.55575C9.04489 12.0916 8.63075 11.6775 8.63075 11.1666Z" fill="#8992AD"/>
</g>
<defs>
<clipPath id="clip0_704_4148">
<rect width="16" height="16" fill="white"/>
</clipPath>
</defs>
</svg>
